<?xml version="1.0" encoding="utf-8"?>
<!-- Generator: Adobe Illustrator 24.1.1, SVG Export Plug-In . SVG Version: 6.00 Build 0)  -->
<svg version="1.1" xmlns="http://www.w3.org/2000/svg" xmlns:xlink="http://www.w3.org/1999/xlink" x="0px" y="0px"
	 viewBox="0 0 800 800" style="enable-background:new 0 0 800 800;" xml:space="preserve">
<style type="text/css">
	.st0{display:none;}
	.st1{display:inline;}
</style>
<g id="Warstwa_1" class="st0">
	<path class="st1" d="M485.8,34c-3.2-3.2-9.7-19.4-32.4-19.4H230c0,0,32.4,3.2,45.3,35.6c0,0,35.6,84.2,68,165.2
		c93.9,220.2,239.7,570,239.7,570h217C803.2,782.1,489.1,37.3,485.8,34L485.8,34z M191.1,63.2L13,484.2C3.3,513.4,9.7,549,61.6,549
		h139.3l123.1-294.7C285,157.1,252.7,79.4,252.7,79.4c-3.2-9.7-13-35.6-32.4-35.6S194.4,59.9,191.1,63.2L191.1,63.2z M187.8,584.6
		h-149C13,584.6,0,568.4,0,568.4c25.9,45.3,100.4,187.9,100.4,187.9c13,16.2,25.9,25.9,45.3,25.9c42.1,0,106.9-42.1,106.9-42.1
		L502,584.6L187.8,584.6z"/>
</g>
<g id="Warstwa_2" class="st0">
	<g id="ba0b9187-9e7b-4a44-b514-e525226eac69" class="st1">
		<g id="a4965d17-1867-45fa-9984-806fa81f659a">
			<path d="M763.3,45.4C734.8,52,669.8,52,653.3,80.2l-16.6,27.9C595.1,179.2,490.4,443.2,389,446.6s53.3-324.3,68.7-357.1
				c-62.9,14.8-123.5,5.8-146.1,70.4c-23.4,66.9-46.6,134-71.5,200.4C188.3,497.5,125.2,629.4,39.3,746.7c1.9-2.6,3.8-5.2-2.5,3.6
				c63.9-12.8,122-10.7,160.3-68.2c35.4-53.3,58.1-112.9,82.1-172l11.4-28l9.2,8.7c91.3,86.1,161.5,0,233-67.2l10.6-9.9l40,150.7
				l88.8-95.2c-7.4-13.3-14.8-26.9-21.6-40.6l-1.1-2.4C590.8,299.2,690.6,153.7,759,51.7L763.3,45.4z"/>
		</g>
	</g>
</g>
<g id="Warstwa_3">
	<path d="M397.8,399.2h-339c-1.8,148.2,95,280.4,237,323.9c14.2,4.4,28.4,8,43.5,9.8L397.8,399.2z"/>
	<path d="M544.2,399.2l22.2-123.4H704C633.9,104.5,438.6,22.9,267.3,93c-83.4,33.7-149.1,100.3-182.8,182.8h460.6l-79.9,454.4
		c118-25.7,213.9-113.6,249.4-229c9.8-32.8,15.1-67.4,14.2-101.2H544.2V399.2z"/>
</g>
</svg>
